<?xml version="1.0" standalone="no"?><!DOCTYPE svg PUBLIC "-//W3C//DTD SVG 1.1//EN" "http://www.w3.org/Graphics/SVG/1.1/DTD/svg11.dtd"><svg t="1701171387949" class="icon" viewBox="0 0 1024 1024" version="1.1" xmlns="http://www.w3.org/2000/svg" p-id="5145" xmlns:xlink="http://www.w3.org/1999/xlink" width="32" height="32"><path d="M169.21 452.05h73c0-113.18 93-205.25 207.4-205.25v-72.61c-74.87 0-145.27 28.88-198.22 81.33s-82.18 122.28-82.18 196.53z" fill="#80FFFF" p-id="5146"></path><path d="M965.78 908.28l-213-210.93A382.6 382.6 0 0 0 841 452.05c0-103.61-40.73-201-114.69-274.26S554.14 64.27 449.62 64.27s-202.78 40.32-276.7 113.52-114.7 170.65-114.7 274.26 40.78 201 114.7 274.25 172.18 113.52 276.7 113.52c93.18 0 181.37-32.06 251.79-90.89l212.85 210.8zM449.62 767.21c-85.07 0-165-32.8-225.19-92.36s-93.2-138.65-93.2-222.8 33.1-163.28 93.2-222.8 140.12-92.37 225.19-92.37 165 32.81 225.19 92.37S768 367.89 768 452.05s-33.1 163.28-93.2 222.8-140.1 92.36-225.18 92.36z" fill="#80FFFF" p-id="5147"></path></svg>