<?xml version="1.0" standalone="no"?><!DOCTYPE svg PUBLIC "-//W3C//DTD SVG 1.1//EN" "http://www.w3.org/Graphics/SVG/1.1/DTD/svg11.dtd"><svg t="1713766751776" class="icon" viewBox="0 0 1024 1024" version="1.1" xmlns="http://www.w3.org/2000/svg" p-id="8310" xmlns:xlink="http://www.w3.org/1999/xlink" width="200" height="200"><path d="M914.22826667 853.9712l-168.29013334-166.86506666c59.2896-64.20906667 95.7952-149.3888 95.7952-243.11466667 0-198.97066667-163.2416-360.78826667-363.8944-360.78826667-200.6528 0-363.8944 161.81653333-363.8944 360.78826667s163.2416 360.78826667 363.8944 360.78826667c90.8768 0 173.98506667-33.39946667 237.80693334-88.288l168.67946666 167.2544c4.14293333 4.14293333 9.57866667 6.21333333 15.01653334 6.21333333s10.8736-2.07146667 15.01653333-6.21333333c3.88373333-3.7536 6.21333333-9.0624 6.21333333-14.88746667s-2.5888-11.00373333-6.34346666-14.88746667zM477.7088 762.83626667c-177.2224 0-321.4336-142.91733333-321.4336-318.71573333 0-175.66933333 144.21226667-318.71573333 321.4336-318.71573334 177.35146667 0 321.56373333 142.91733333 321.56373333 318.71573334 0 175.66933333-144.21226667 318.71573333-321.56373333 318.71573333z" fill="#333333" p-id="8311"></path><path d="M480.94613333 699.01546667c-138.64533333 0-251.0112-112.36586667-251.0112-251.0112s112.36586667-251.0112 251.0112-251.0112c138.64533333 0 251.0112 112.36586667 251.0112 251.0112 0 138.64533333-112.36586667 251.0112-251.0112 251.0112z" fill="#333333" p-id="8312"></path><path d="M542.17813333 326.8352h13.07413334v15.53386667h-13.07413334z" fill="#333333" p-id="8313"></path></svg>