<?xml version="1.0" standalone="no"?><!DOCTYPE svg PUBLIC "-//W3C//DTD SVG 1.1//EN" "http://www.w3.org/Graphics/SVG/1.1/DTD/svg11.dtd"><svg t="1713766649059" class="icon" viewBox="0 0 1024 1024" version="1.1" xmlns="http://www.w3.org/2000/svg" p-id="4886" xmlns:xlink="http://www.w3.org/1999/xlink" width="200" height="200"><path d="M967.416162 866.113013c-43.437807-43.815527-86.875615-86.875615-130.313422-130.313422-4.154921-4.154921-4.532641-6.421241-0.75544-11.331602 54.391689-71.389092 85.742455-152.221186 92.163695-242.118561 4.532641-63.834691-3.777201-125.780781-25.684964-185.838271C836.3473 116.338686 665.995551-0.376814 479.024119 0.000907c-27.951285 0-55.524849 2.26632-82.720694 7.554401-81.587534 15.486523-153.732066 49.859048-215.678156 105.006178C86.572973 196.79306 35.580764 302.554678 29.159523 428.713179c-4.910361 92.541416 16.619683 179.03931 66.101011 257.227364 79.321213 125.025341 193.014953 196.792153 340.703498 212.656396 86.497895 9.065282 168.840869-7.176681 246.651202-46.837288 5.288081-2.64404 8.309841-2.26632 12.464762 1.8886 47.592728 47.970448 95.185456 95.940896 143.533624 143.533624 23.040924 22.663204 51.369929 30.973045 83.098414 24.551805 35.505686-7.176681 59.67977-29.084445 69.878212-63.834691 9.820722-34.372526 1.51088-65.723291-24.174084-91.785976z m-489.147483-120.4927c-159.397867 0-298.02113-130.691142-294.99937-301.420611 3.021761-164.308228 137.867823-290.466729 295.75481-289.711289 163.552788 0.37772 295.75481 132.579742 295.37709 295.75481-0.37772 163.175068-133.335183 295.37709-296.13253 295.37709z" fill="#333333" p-id="4887"></path></svg>